<svg xmlns="http://www.w3.org/2000/svg" viewBox="0 0 435.32 299.6">
  <defs>
    <style>.cls-1{fill:#062e4b;}</style>
  </defs>
  <g id="レイヤー_2" data-name="レイヤー 2"><g id="Text"><path class="cls-1" d="M52.32,206.32c0,14.8-12.76,18.93-30.1,18.93H0V160.33H19.53c18.54,0,29.9,4.4,29.9,16.58,0,8.24-6.28,12.55-12.66,14C44.45,192.27,52.32,195.83,52.32,206.32Zm-36-35.12v15.08h6.08c6.78,0,10.37-2.44,10.37-7.87S29,171.2,21.13,171.2Zm19.14,34.28c0-6.56-4.89-9-12-9H16.34V214.1h6C30,214.1,35.48,212.6,35.48,205.48Z"/><path class="cls-1" d="M127.92,211.29H107.79l-3.49,14H87.36l20.83-64.92H128l20.83,64.92H131.51Zm-2.79-11.15-7.27-28.66-7.28,28.66Z"/><path class="cls-1" d="M225.14,211.29H205l-3.49,14H184.58l20.83-64.92h19.83l20.83,64.92H228.73Zm-2.79-11.15-7.28-28.66-7.27,28.66Z"/><path class="cls-1" d="M308,200.42h-6.38v24.83H285.23V160.33h22.63c18.73,0,28.4,6.28,28.4,19.77,0,8.52-4.29,13.67-13.26,17.51l17.54,27.64H322.11Zm-6.38-10.58h6.87c7.18,0,11-2.91,11-9.74,0-6.28-3.89-9-12-9h-5.88Z"/><path class="cls-1" d="M435.32,192.46c0,26.14-16.74,32.79-34.38,32.79H380.21V160.33h19.23C417.88,160.33,435.32,165.67,435.32,192.46Zm-38.77-21V214.1h5.38c9.87,0,16.45-4.4,16.45-21.64,0-17.42-7.08-21-16.65-21Z"/><path class="cls-1" d="M163.16,289.21h-7.72v-5.58h7.72v-2.34h-7.72V259.92H178v21.37h-8.46v2.34h8.74v5.58h-8.74v2.56h9.53v6.38H153.28v-5a69.17,69.17,0,0,1-11.75,3.58l-.79-7.41c2.21-.47,2.89-.6,4.43-.94v-8.68h-3.35v-6.43h3.35v-6.05h-3.86V260.6h13v6.64h-2.72v6.05h2.61v6.43h-2.61v7c.45-.13,2.44-.72,2.84-.85v5.92h8.74Zm.51-23.2h-2.38v2.47h2.38ZM161.29,273v2.55h2.38V273ZM172,268.48V266h-2.44v2.47Zm-2.44,7H172V273h-2.44Z"/><path class="cls-1" d="M204.47,295.94a40.88,40.88,0,0,1-4.49,3.62l-4-5.41a21.89,21.89,0,0,0,8.52-8.22h-7.67v-5.06h9.94c.22-.77.28-.9.39-1.41l3.92.39c-.06-.17-.34-.86-.4-1-2.21.26-6.64.69-13.39.86l-.23-3.58H199a12.69,12.69,0,0,0,.51-1.58h-2.61V271h2V259.84h16.06v3.27h-9.59v1.07h8.8v2.34h-8.8v1.06h8.8v2.22h-8.8V271h10.62v3.53h-1.37a20.11,20.11,0,0,1,1.93,4L212.7,280l1.19.13c-.11.34-.11.38-.23.77h20.78v5.06H211.73c-.28.51-.34.6-.62,1.2h18.68V291a19.35,19.35,0,0,1-3.07,2.73c.91,0,1.87.08,2.78.08,2.44,0,4.14-.17,5.28-.25l-2,6A66.79,66.79,0,0,1,219,297.47a47.13,47.13,0,0,1-13.28,2.13Zm4.88-20.14c-.11-.17-.57-1.06-.68-1.28h-2.78c-.17.43-.46,1.11-.63,1.49Zm-3.46,18.69c2-.08,3.06-.17,5.33-.34a35.64,35.64,0,0,1-3.12-2.21C207.14,293.09,206.68,293.64,205.89,294.49Zm8.74-3.45a30.68,30.68,0,0,0,4.37,1.88,12.64,12.64,0,0,0,3.07-1.88Zm.79-29.42c8.12-.42,12.26-2,14.65-3l3,4c-4.83,2.55-10.5,3.62-16,4.17Zm.4,6.77c5.45-.29,10.84-1.4,15-3.61l2.73,4.17c-6.08,3.45-13.51,4.34-16.24,4.64Zm.06,7c7.49-.81,12.83-2.3,16.35-4.18l3,4.9c-6,3.23-13.06,4-17.6,4.6Z"/><path class="cls-1" d="M276.92,271.33h12.49v6.43H276.92v3h10.56v17.75h-25.6V280.78h8.28V268.35h-9v11.71c0,2,0,12.43-4.32,19.45l-5.56-5.74c2.78-5.28,2.9-12.22,2.9-14V261.71h13.73V258.6h7.21v3.11h14.31v6.64H276.92Zm3.63,15.8H268.74V292h11.81Z"/><path class="cls-1" d="M177,28.48,233.28,0a.21.21,0,0,1,.31.18V20.27a.19.19,0,0,1-.1.18L177.25,48.9a.21.21,0,0,1-.32-.18V28.66A.22.22,0,0,1,177,28.48Z"/><path class="cls-1" d="M177,66.29l56.25-28.45a.21.21,0,0,1,.31.18V58.08a.19.19,0,0,1-.1.18L177.25,86.71a.21.21,0,0,1-.32-.17V66.47A.22.22,0,0,1,177,66.29Z"/><path class="cls-1" d="M177,104.1l56.25-28.45a.21.21,0,0,1,.31.18V95.89a.19.19,0,0,1-.1.18l-56.24,28.45a.21.21,0,0,1-.32-.17V104.28A.22.22,0,0,1,177,104.1Z"/></g></g>
</svg>
