<svg xmlns="http://www.w3.org/2000/svg" viewBox="0 0 435.32 299.6"><path d="M52.32 206.32c0 14.8-12.76 18.93-30.1 18.93H0v-64.92h19.53c18.54 0 29.9 4.4 29.9 16.58 0 8.24-6.28 12.55-12.66 14 7.68 1.36 15.55 4.92 15.55 15.41zm-36-35.12v15.08h6.08c6.78 0 10.37-2.44 10.37-7.87S29 171.2 21.13 171.2zm19.14 34.28c0-6.56-4.89-9-12-9h-7.12v17.62h6c7.66 0 13.14-1.5 13.14-8.62zm92.46 5.81h-20.13l-3.49 14H87.36l20.83-64.92H128l20.83 64.92h-17.32zm-2.79-11.15l-7.27-28.66-7.28 28.66zm100.01 11.15H205l-3.49 14h-16.93l20.83-64.92h19.83l20.83 64.92h-17.34zm-2.79-11.15l-7.28-28.66-7.27 28.66zm85.65.28h-6.38v24.83h-16.39v-64.92h22.63c18.73 0 28.4 6.28 28.4 19.77 0 8.52-4.29 13.67-13.26 17.51l17.54 27.64h-18.43zm-6.38-10.58h6.87c7.18 0 11-2.91 11-9.74 0-6.28-3.89-9-12-9h-5.88zm133.7 2.62c0 26.14-16.74 32.79-34.38 32.79h-20.73v-64.92h19.23c18.44 0 35.88 5.34 35.88 32.13zm-38.77-21v42.64h5.38c9.87 0 16.45-4.4 16.45-21.64 0-17.42-7.08-21-16.65-21zM163.16 289.21h-7.72v-5.58h7.72v-2.34h-7.72v-21.37H178v21.37h-8.46v2.34h8.74v5.58h-8.74v2.56h9.53v6.38h-25.79v-5a69.17 69.17 0 01-11.75 3.58l-.79-7.41c2.21-.47 2.89-.6 4.43-.94v-8.68h-3.35v-6.43h3.35v-6.05h-3.86v-6.62h13v6.64h-2.72v6.05h2.61v6.43h-2.61v7c.45-.13 2.44-.72 2.84-.85v5.92h8.74zm.51-23.2h-2.38v2.47h2.38zm-2.38 6.99v2.55h2.38V273zm10.71-4.52V266h-2.44v2.47zm-2.44 7H172V273h-2.44zm34.91 20.46a40.88 40.88 0 01-4.49 3.62l-4-5.41a21.89 21.89 0 008.52-8.22h-7.67v-5.06h9.94c.22-.77.28-.9.39-1.41l3.92.39c-.06-.17-.34-.86-.4-1-2.21.26-6.64.69-13.39.86l-.23-3.58H199a12.69 12.69 0 00.51-1.58h-2.61V271h2v-11.16h16.06v3.27h-9.59v1.07h8.8v2.34h-8.8v1.06h8.8v2.22h-8.8v1.2h10.62v3.53h-1.37a20.11 20.11 0 011.93 4L212.7 280l1.19.13c-.11.34-.11.38-.23.77h20.78v5.06h-22.71c-.28.51-.34.6-.62 1.2h18.68V291a19.35 19.35 0 01-3.07 2.73c.91 0 1.87.08 2.78.08 2.44 0 4.14-.17 5.28-.25l-2 6a66.79 66.79 0 01-13.78-2.09 47.13 47.13 0 01-13.28 2.13zm4.88-20.14c-.11-.17-.57-1.06-.68-1.28h-2.78c-.17.43-.46 1.11-.63 1.49zm-3.46 18.69c2-.08 3.06-.17 5.33-.34a35.64 35.64 0 01-3.12-2.21c-.96 1.15-1.42 1.7-2.21 2.55zm8.74-3.45a30.68 30.68 0 004.37 1.88 12.64 12.64 0 003.07-1.88zm.79-29.42c8.12-.42 12.26-2 14.65-3l3 4c-4.83 2.55-10.5 3.62-16 4.17zm.4 6.77c5.45-.29 10.84-1.4 15-3.61l2.73 4.17c-6.08 3.45-13.51 4.34-16.24 4.64zm.06 7c7.49-.81 12.83-2.3 16.35-4.18l3 4.9c-6 3.23-13.06 4-17.6 4.6zm61.04-4.06h12.49v6.43h-12.49v3h10.56v17.75h-25.6v-17.73h8.28v-12.43h-9v11.71c0 2 0 12.43-4.32 19.45l-5.56-5.74c2.78-5.28 2.9-12.22 2.9-14v-18.06h13.73v-3.11h7.21v3.11h14.31v6.64h-12.51zm3.63 15.8h-11.81V292h11.81zM177 28.48L233.28 0a.21.21 0 01.31.18v20.09a.19.19 0 01-.1.18L177.25 48.9a.21.21 0 01-.32-.18V28.66a.22.22 0 01.07-.18zm0 37.81l56.25-28.45a.21.21 0 01.31.18v20.06a.19.19 0 01-.1.18l-56.21 28.45a.21.21 0 01-.32-.17V66.47a.22.22 0 01.07-.18zm0 37.81l56.25-28.45a.21.21 0 01.31.18v20.06a.19.19 0 01-.1.18l-56.24 28.45a.21.21 0 01-.32-.17v-20.07a.22.22 0 01.1-.18z" fill="#062e4b" data-name="レイヤー 2"/></svg>