<svg xmlns="http://www.w3.org/2000/svg" viewBox="0 0 435.32 64.92"><path d="M52.32 46c0 14.8-12.76 18.93-30.1 18.93H0V0h19.53c18.54 0 29.9 4.4 29.9 16.58 0 8.24-6.28 12.55-12.66 14C44.45 31.94 52.32 35.5 52.32 46zm-36-35.12V26h6.08c6.78 0 10.37-2.44 10.37-7.87S29 10.87 21.13 10.87zm19.16 34.27c0-6.56-4.89-9-12-9h-7.14v17.62h6c7.66 0 13.14-1.5 13.14-8.62zM127.92 51h-20.13l-3.49 14H87.36l20.83-65H128l20.83 64.92h-17.32zm-2.79-11.15l-7.27-28.66-7.28 28.66zM225.14 51H205l-3.49 14h-16.93l20.83-65h19.83l20.83 64.92h-17.34zm-2.79-11.15l-7.28-28.66-7.27 28.62zm85.65.24h-6.38v24.83h-16.39V0h22.63c18.73 0 28.4 6.28 28.4 19.77 0 8.52-4.29 13.67-13.26 17.51l17.54 27.64h-18.43zm-6.38-10.58h6.87c7.18 0 11-2.91 11-9.74 0-6.28-3.89-9-12-9h-5.88zm133.7 2.62c0 26.14-16.74 32.79-34.38 32.79h-20.73V0h19.23c18.44 0 35.88 5.34 35.88 32.13zm-38.77-21v42.64h5.38c9.87 0 16.45-4.4 16.45-21.64 0-17.42-7.08-21-16.65-21z" fill="#062e4b" data-name="レイヤー 2"/></svg>