<svg xmlns="http://www.w3.org/2000/svg" viewBox="0 0 148.67 41"><path d="M22.42 30.61H14.7V25h7.72v-2.31H14.7V1.32h22.54v21.37h-8.46V25h8.74v5.58h-8.74v2.55h9.53v6.39H12.54v-5A68.33 68.33 0 01.79 38.14L0 30.74c2.21-.47 2.9-.6 4.43-.94v-8.68H1.08v-6.43h3.35v-6H.57V2h13v6.64h-2.73v6h2.61v6.43h-2.61v7l2.84-.85v5.91h8.74zm.51-23.2h-2.38v2.47h2.38zm-2.38 6.94v2.55h2.38v-2.55zm10.67-4.47V7.41h-2.44v2.47zm-2.44 7h2.44v-2.53h-2.44zm34.95 20.46A41.69 41.69 0 0159.25 41l-4-5.4a21.89 21.89 0 008.52-8.22h-7.65v-5.11h9.94c.22-.77.28-.9.39-1.41l3.92.38c-.06-.17-.34-.85-.4-1-2.21.26-6.64.68-13.39.85l-.23-3.57h1.87a13.25 13.25 0 00.51-1.58h-2.61v-3.55h2V1.23h16.05v3.28h-9.59v1.07h8.8v2.34h-8.8V9h8.8v2.2h-8.8v1.19H75.2v3.53h-1.37a20.25 20.25 0 011.93 4L72 21.37l1.19.13c-.11.34-.11.38-.22.77H93.7v5.06H71c-.29.51-.34.6-.63 1.19h18.68v3.92A19.35 19.35 0 0186 35.17c.91 0 1.87.08 2.78.08 2.44 0 4.15-.17 5.28-.26l-2 6a67.48 67.48 0 01-13.79-2.13A47.13 47.13 0 0165 41zm4.88-20.14c-.11-.17-.57-1.07-.68-1.28h-2.78c-.17.43-.46 1.11-.63 1.49zm-3.46 18.69c2-.09 3.06-.17 5.33-.34a35.84 35.84 0 01-3.12-2.22c-.96 1.15-1.42 1.67-2.21 2.56zm8.74-3.45a32.59 32.59 0 004.37 1.87 12.57 12.57 0 003.07-1.87zM74.69 3C82.8 2.6 87 1 89.33 0l3 4c-4.83 2.56-10.5 3.62-16 4.18zm.39 6.77c5.45-.3 10.84-1.4 15-3.62l2.73 4.17c-6.03 3.47-13.47 4.37-16.19 4.68zm.06 7C82.63 16 88 14.47 91.49 12.6l3 4.9c-6 3.23-13.06 4-17.6 4.59zm61.04-4.04h12.49v6.43h-12.49v3h10.56v17.77h-25.6V22.18h8.28V9.75h-9v11.71c0 2 0 12.43-4.31 19.45l-5.57-5.74c2.78-5.28 2.9-12.22 2.9-14V3.11h13.73V0h7.21v3.11h14.31v6.64h-12.51zm3.63 15.79H128v4.86h11.8z" fill="#062e4b" data-name="レイヤー 2"/></svg>